# Blender 4.0.2
# www.blender.org
mtllib tarea1.mtl
o Cube
v -0.644060 1.000000 -0.644060
v 1.000000 -1.000000 -1.000000
v 1.000000 1.000000 1.000000
v 1.000000 -1.000000 1.000000
v -1.000000 1.000000 -1.000000
v -1.000000 -1.000000 -1.000000
v -1.000000 1.000000 1.000000
v -1.000000 -1.000000 1.000000
v 0.644060 -1.000000 0.644060
v -0.644060 -1.000000 0.644060
v -0.644060 -1.000000 -0.644060
v 0.644060 -1.000000 -0.644060
v 0.644060 -0.644060 1.000000
v 0.644060 0.644060 1.000000
v -0.644060 0.644060 1.000000
v -0.644060 -0.644060 1.000000
v -1.000000 -0.644060 0.644060
v -1.000000 0.644060 0.644060
v -1.000000 0.644060 -0.644060
v -1.000000 -0.644060 -0.644060
v -0.644060 -1.000000 -0.644060
v 0.644060 -1.000000 -0.644060
v 0.644060 -1.000000 0.644060
v -0.644060 -1.000000 0.644060
v -1.000000 0.644060 -0.644060
v -1.000000 -0.644060 -0.644060
v -1.000000 0.644060 0.644060
v -1.000000 -0.644060 0.644060
v -0.644060 0.644060 1.000000
v -0.644060 -0.644060 1.000000
v 0.644060 -0.644060 1.000000
v 0.644060 0.644060 1.000000
v 1.000000 -1.000000 -1.000000
v -1.000000 -1.000000 -1.000000
v 1.000000 1.000000 -1.000000
v 1.000000 1.000000 1.000000
v 1.000000 -1.000000 1.000000
v -1.000000 1.000000 -1.000000
v -1.000000 1.000000 1.000000
v -0.644060 1.000000 -0.644060
v 0.644060 1.000000 -0.644060
v 0.644060 1.000000 0.644060
v -0.644060 1.000000 0.644060
v -1.000000 0.644060 0.644060
v -1.000000 0.644060 -0.644060
v 1.000000 0.644060 -0.644060
v 1.000000 -0.644060 -0.644060
v 1.000000 -0.644060 0.644060
v 1.000000 0.644060 0.644060
v -0.644060 0.644060 -1.000000
v -0.644060 -0.644060 -1.000000
v 0.644060 -0.644060 -1.000000
v 0.644060 0.644060 -1.000000
v 0.644060 1.000000 -0.644060
v 0.644060 1.000000 0.644060
v -0.644060 1.000000 0.644060
v 1.000000 0.644060 -0.644060
v 1.000000 -0.644060 -0.644060
v 1.000000 -0.644060 0.644060
v 1.000000 0.644060 0.644060
v -0.644060 0.644060 -1.000000
v -0.644060 -0.644060 -1.000000
v 0.644060 -0.644060 -1.000000
v 0.644060 0.644060 -1.000000
v -0.257624 -0.257624 1.500000
v -0.257624 0.257624 1.500000
v 0.257624 0.257624 1.500000
v 0.257624 -0.257624 1.500000
v 1.500000 0.257624 0.257624
v 1.500000 -0.257624 0.257624
v 1.500000 0.257624 -0.257624
v 1.500000 -0.257624 -0.257624
v -0.257624 0.257624 -1.500000
v -0.257624 -0.257624 -1.500000
v 0.257624 -0.257624 -1.500000
v 0.257624 0.257624 -1.500000
v -1.500000 0.257624 -0.257624
v -1.500000 -0.257624 -0.257624
v -1.500000 0.257624 0.257624
v -1.500000 -0.257624 0.257624
v 0.257624 1.500000 0.257624
v -0.257624 1.500000 0.257624
v -0.257624 1.500000 -0.257624
v 0.257624 1.500000 -0.257624
v -0.257624 -1.500000 0.257624
v 0.257624 -1.500000 0.257624
v 0.257624 -1.500000 -0.257624
v -0.257624 -1.500000 -0.257624
vn -0.0000 1.0000 -0.0000
vn 0.7912 -0.0000 -0.6115
vn 0.6115 -0.7912 -0.0000
vn 0.7912 0.6115 -0.0000
vn -0.0000 -0.6115 0.7912
vn -0.6115 -0.7912 -0.0000
vn -0.0000 -0.0000 1.0000
vn -1.0000 -0.0000 -0.0000
vn -0.0000 -0.7912 0.6115
vn -0.0000 -1.0000 -0.0000
vn 1.0000 -0.0000 -0.0000
vn -0.0000 -0.0000 -1.0000
vn -0.7912 -0.0000 0.6115
vn 0.7912 -0.0000 0.6115
vn -0.0000 0.7912 0.6115
vn 0.6115 0.7912 -0.0000
vn 0.6115 -0.0000 -0.7912
vn 0.6115 -0.0000 0.7912
vn -0.0000 -0.7912 -0.6115
vn -0.0000 0.7912 -0.6115
vn -0.7912 -0.0000 -0.6115
vn -0.6115 -0.0000 -0.7912
vn -0.6115 -0.0000 0.7912
vn -0.6115 0.7912 -0.0000
vn -0.0000 0.6115 0.7912
vn -0.0000 0.6115 -0.7912
vn -0.7912 0.6115 -0.0000
vn -0.0000 -0.6115 -0.7912
vn 0.7912 -0.6115 -0.0000
vn -0.7912 -0.6115 -0.0000
vt 0.419492 0.294492
vt 0.580508 0.294492
vt 0.419492 0.955508
vt 0.419492 0.794493
vt 0.419492 0.544493
vt 0.580508 0.544492
vt 0.419492 0.044492
vt 0.580508 0.044492
vt 0.169492 0.544493
vt 0.330508 0.544492
vt 0.580508 0.455508
vt 0.419492 0.455508
vt 0.419492 0.705508
vt 0.669492 0.705508
vt 0.669492 0.544493
vt 0.330508 0.705508
vt 0.169492 0.705508
vt 0.419492 0.205508
vt 0.375000 0.750000
vt 0.625000 0.750000
vt 0.580508 0.794492
vt 0.625000 1.000000
vt 0.580508 0.955508
vt 0.375000 1.000000
vt 0.375000 0.000000
vt 0.625000 0.000000
vt 0.625000 0.250000
vt 0.375000 0.250000
vt 0.580508 0.205508
vt 0.125000 0.500000
vt 0.375000 0.500000
vt 0.125000 0.750000
vt 0.830508 0.705508
vt 0.830508 0.544492
vt 0.625000 0.500000
vt 0.875000 0.500000
vt 0.875000 0.750000
vt 0.580508 0.705508
s 0
usemtl Material
f 51/1/1 50/2/1 61/2/1 62/1/1
f 16/3/1 13/4/1 31/4/1 30/3/1
f 47/5/1 46/6/1 57/6/1 58/5/1
f 17/7/1 18/8/1 27/8/1 28/7/1
f 21/9/1 22/10/1 12/10/1 11/9/1
f 64/11/2 63/12/2 75/12/2 76/11/2
f 59/13/3 58/5/3 72/5/3 70/13/3
f 55/14/4 54/15/4 84/15/4 81/14/4
f 9/16/5 10/17/5 85/17/5 86/16/5
f 26/18/6 28/7/6 80/7/6 78/18/6
f 4/19/7 3/20/7 14/21/7 13/4/7
f 3/20/7 7/22/7 15/23/7 14/21/7
f 7/22/7 8/24/7 16/3/7 15/23/7
f 8/24/7 4/19/7 13/4/7 16/3/7
f 8/25/8 7/26/8 18/8/8 17/7/8
f 30/3/9 31/4/9 68/4/9 65/3/9
f 5/27/8 6/28/8 20/18/8 19/29/8
f 6/28/8 8/25/8 17/7/8 20/18/8
f 6/30/10 2/31/10 22/10/10 21/9/10
f 2/31/10 4/19/10 23/16/10 22/10/10
f 4/19/10 8/32/10 24/17/10 23/16/10
f 8/32/10 6/30/10 21/9/10 24/17/10
f 7/22/1 3/20/1 36/20/1 39/22/1
f 19/29/1 18/8/1 44/8/1 45/29/1
f 2/31/1 6/30/1 34/30/1 33/31/1
f 5/27/1 19/29/1 45/29/1 38/27/1
f 6/28/1 5/27/1 38/27/1 34/28/1
f 4/19/1 2/31/1 33/31/1 37/19/1
f 18/8/1 7/26/1 39/26/1 44/8/1
f 3/20/1 4/19/1 37/19/1 36/20/1
f 43/33/1 42/14/1 55/14/1 56/33/1
f 13/4/1 14/21/1 32/21/1 31/4/1
f 40/34/1 43/33/1 56/33/1 1/34/1
f 35/35/1 38/36/1 40/34/1 41/15/1
f 38/36/1 39/37/1 43/33/1 40/34/1
f 39/37/1 36/20/1 42/14/1 43/33/1
f 36/20/1 35/35/1 41/15/1 42/14/1
f 39/26/8 38/27/8 45/29/8 44/8/8
f 33/31/11 35/35/11 46/6/11 47/5/11
f 35/35/11 36/20/11 49/38/11 46/6/11
f 36/20/11 37/19/11 48/13/11 49/38/11
f 37/19/11 33/31/11 47/5/11 48/13/11
f 34/28/12 38/27/12 50/2/12 51/1/12
f 38/27/12 35/35/12 53/11/12 50/2/12
f 35/35/12 33/31/12 52/12/12 53/11/12
f 33/31/12 34/28/12 51/1/12 52/12/12
f 20/18/1 17/7/1 28/7/1 26/18/1
f 48/13/1 47/5/1 58/5/1 59/13/1
f 14/21/1 15/23/1 29/23/1 32/21/1
f 24/17/1 21/9/1 11/9/1 10/17/1
f 52/12/1 51/1/1 62/1/1 63/12/1
f 18/8/1 19/29/1 25/29/1 27/8/1
f 46/6/1 49/38/1 60/38/1 57/6/1
f 15/23/1 16/3/1 30/3/1 29/23/1
f 22/10/1 23/16/1 9/16/1 12/10/1
f 50/2/1 53/11/1 64/11/1 61/2/1
f 19/29/1 20/18/1 26/18/1 25/29/1
f 49/38/1 48/13/1 59/13/1 60/38/1
f 23/16/1 24/17/1 10/17/1 9/16/1
f 53/11/1 52/12/1 63/12/1 64/11/1
f 41/15/1 40/34/1 1/34/1 54/15/1
f 42/14/1 41/15/1 54/15/1 55/14/1
f 68/4/7 67/21/7 66/23/7 65/3/7
f 29/23/13 30/3/13 65/3/13 66/23/13
f 31/4/14 32/21/14 67/21/14 68/4/14
f 32/21/15 29/23/15 66/23/15 67/21/15
f 72/5/11 71/6/11 69/38/11 70/13/11
f 57/6/16 60/38/16 69/38/16 71/6/16
f 58/5/17 57/6/17 71/6/17 72/5/17
f 60/38/18 59/13/18 70/13/18 69/38/18
f 74/1/12 73/2/12 76/11/12 75/12/12
f 63/12/19 62/1/19 74/1/19 75/12/19
f 61/2/20 64/11/20 76/11/20 73/2/20
f 62/1/21 61/2/21 73/2/21 74/1/21
f 80/7/8 79/8/8 77/29/8 78/18/8
f 25/29/22 26/18/22 78/18/22 77/29/22
f 28/7/23 27/8/23 79/8/23 80/7/23
f 27/8/24 25/29/24 77/29/24 79/8/24
f 84/15/1 83/34/1 82/33/1 81/14/1
f 56/33/25 55/14/25 81/14/25 82/33/25
f 54/15/26 1/34/26 83/34/26 84/15/26
f 1/34/27 56/33/27 82/33/27 83/34/27
f 88/9/10 87/10/10 86/16/10 85/17/10
f 11/9/28 12/10/28 87/10/28 88/9/28
f 12/10/29 9/16/29 86/16/29 87/10/29
f 10/17/30 11/9/30 88/9/30 85/17/30
